<?xml version="1.0" encoding="UTF-8"?>
<svg id="Ebene_2" data-name="Ebene 2" xmlns="http://www.w3.org/2000/svg" viewBox="0 0 642.1 605.33">
  <defs>
    <style>
      .cls-1 {
        fill: #ac0b12;
      }

      .cls-2 {
        fill: #f6f6f6;
      }

      .cls-3 {
        fill: #d90415;
      }

      .cls-4 {
        fill: #db101d;
      }

      .cls-5 {
        fill: #fff;
      }

      .cls-6 {
        fill: #040303;
      }
    </style>
  </defs>
  <g id="Ebene_1-2" data-name="Ebene 1">
    <path class="cls-5" d="M430.91,605.33l-2.84-2.5c-2.32-2.05-3.61-5-3.55-8.09.04-2.04.61-3.81,1.52-5.39-9.37-.69-17.3-5.62-22-13.76-5.51-9.54-5.55-21.79-.11-31.22,3.76-6.51,9.74-11.01,17.04-13.01-.33-8.98,2.65-15.42,5.73-19.63,5.82-7.94,15.73-12.69,26.52-12.69s20.89,4.81,26.71,12.86c4.11,5.68,5.96,12.67,5.5,20.31,5.24,1.58,9.65,4.09,13.19,7.53,5.45,5.3,8.33,12.5,8.11,20.27-.41,14.64-10.95,26.83-24.34,29.09,1.85,3.38,1.4,6.88,1.09,8.32l-1.69,7.91h-50.87Z"/>
    <path class="cls-5" d="M255.92,598.23c-4.37,0-7.72-2.47-11.33-5.45l-.24-.2c-.32-.26-32.12-26.65-38.16-44.5-3.55-10.49-2.6-22.1,2.56-31.07,4.29-7.47,11.28-12.53,19.68-14.25,2.2-.45,4.45-.68,6.68-.68,7.33,0,14.55,2.47,20.52,6.99,5.63-4.5,12.49-6.95,19.85-6.95,9.13,0,17.86,3.86,23.95,10.59,6.23,6.88,9.11,16.12,8.12,26.01-1.67,16.71-14.11,28.81-22.34,36.81l-.15.14-24.45,21.9-2.81.5c-.61.11-1.24.16-1.87.16Z"/>
    <path class="cls-5" d="M140.19,605.33l-2.74-2.19c-2.69-2.16-4.18-5.48-3.98-8.9.12-2.02.74-3.72,1.65-5.17-4-.8-7.81-2.52-11.38-5.15-9.69-7.14-12.11-15.37-12.44-21.02-1.04-17.95,16.69-34.48,30.93-47.77,4.58-4.27,8.9-8.3,11.09-11.07l1.49-1.88,10.73-4.91,4.92,5.42c2.68,2.95,7.05,6.85,11.68,10.99,14.18,12.67,30.25,27.02,32.21,42.13,1.14,8.82-1.37,17.25-7.08,23.74-4.4,5-10.29,8.33-16.69,9.51,1.21,2.26,1.66,5.15.84,8.59l-1.83,7.68h-49.4Z"/>
    <path class="cls-5" d="M353.95,605.27c-5.22,0-8.91-3.54-13.2-8.16l-.36-.38c-7.48-7.92-14.93-16.22-22.13-24.25-1.81-2.02-3.62-4.03-5.42-6.04-.24-.27-.95-.94-1.51-1.49-4.63-4.44-12.37-11.86-8.25-20.79l.68-1.47,49.61-52.95,55.86,60.19-50.12,54.6-3.36.58c-.59.1-1.2.15-1.8.15Z"/>
    <path class="cls-6" d="M0,286.37l81.07-17.58-16.15-74.94c-.1-4.79,7.02-4.37,10.63-5.45,1.12-.34,1.77.67,1.45-1.51L19,107.38l92.95,15.97,3.12-29.32c-24.71-10.62-14.2-45.01,12.98-39.21,5.15,1.1,12.15,7.37,13.48,12.52.89,3.43-.43,8.43,1.45,10.55l41,19.49,25.07-53.42c-25.02-16.22-6.16-52.62,21.93-42.07,8.26,3.1,14.83,12.17,15.05,21.03.12,5-4.43,11.03-2.09,15.01l44.73,34.35,1.33-.34,23.87-29.2c2.61-3.96-.82-8.51-.76-12.77.25-17.57,21.61-25.64,34.8-15.01,9.61,7.75,8.91,19.16,2.28,28.73l16.34,28.68,78.47-56-29.99,141.99c57.88,2.91,115.44,10.82,172,23.01-8.82,29.28-22.6,56.67-36,83.99,30.29,4.37,60.3,11.52,89.55,19.95l.49,2.51c-2.67,49.7,3.37,102.79-.01,152.09-1.9,27.73-17.34,52.45-43.78,62.22-40.26,14.89-108.12-4.95-151.81-8.8-98.98-8.74-200.97-6.44-299.81,6.18-48.89,6.24-97.24,15.97-145.64,24.86v-238ZM217.71,12.59c-11.51,2.65-10.74,23.64,4.75,22.82,17.11-.9,13.76-27.09-4.75-22.82ZM330.7,22.58c-8.39,2.51-5.06,18.96,6.34,15.36,10.59-3.35,5.1-18.77-6.34-15.36ZM234,50.37c-1.76-1.3-5.95-6.33-7.95-4.96l-35.65,72.88c-8.23-2.39-54.6-28.59-58.82-27.86-2.53.43-4.04,45.52-5.58,50.95l-72-12,53,72.56c.7.7,1.29.21,2.02.04,4.3-1.04,14.67-7.43,19.98-9.6,70.32-28.71,153.65-41.6,229.49-36.99,13.83.84,27.6,3.39,41.45,3.93-.24-2.79,2.64-6.51-.65-7.73-35.25-5.25-72.04-9.44-107.78-7.2-12.46.78-25.03,4.55-37.51,4.99-1.3.05-3.33.44-4-1,17.04-3.74,35.28-7.81,52.62-9.88,15.73-1.87,31.64-1.56,47.38-3.12,7.27,2.21,32.93,1.15,43,2,2.9.25,9.51,2.8,10.81-.69l17.18-83.31-58.53,41.04-27.98-45.03c-1.22-1.4-3.15-1.28-4.8-.85l-39.18,45.67c-19.16-14.18-37.32-29.69-56.51-43.83ZM120.73,65.57c-12.1,1.6-6.58,21.51,4.64,15.67,9.22-4.8,3.49-16.74-4.64-15.67ZM282.76,188.63c-38.92,4.98-36.37,61.55-2.15,65.63,17.2,2.05,35.39-2.6,41.11-20.67,8.96-28.27-10.12-48.66-38.97-44.97ZM388,189.37l-59-1v16h19v48l20,1,1-49h19v-15ZM451,192.37l-50.95-2.95c-1.38,20.77-2.75,41.64-3.05,62.45l1.64,2.36,51.36,2.14v-14l-32.01-1.99v-11.01s29.01,1.01,29.01,1.01c-.84-3.24,3.25-12.6-.64-13.87-3.89-.81-25.99-.76-27.25-2.24-.72-.85.28-7.97-.1-9.89l31.99,2v-14ZM240,192.37h-14.5c-1.06,0-6,1.67-5.54,3.49l4.04,61.52,20.01-1-4.01-64.01ZM486.73,195.65l-20.73-2.28-3.89,63.9c3.12.45,17.11,3.09,18.45,1.16,1.01-1.45,1.18-20.93,1.45-24.55l1.98-9.5c5.94,12.98,14.33,24.69,21.53,36.98,1.58,1.31,18.45,3.47,19.37,2.89l5.01-63.78-18.75-1.95-2.64,34.85-21.78-37.72ZM201.64,205.73c-14.13-14.14-38.99-6.57-56.62-5.33l5.98,63.98c22.43-2.41,56.62-.33,58.98-30.52.73-9.29-1.56-21.35-8.34-28.13ZM129.99,205.37c-1.35-1.17-16.37,7.37-19.03,8.67l5.03,54.34c2.92.18,19.56-.6,20.04-2.67l-6.05-60.34ZM249,457.37c.08.54,1.04,2.99,1.62,3.08l55.74-1.22c3.24-1.09,5.89-24.4,8.6-28.4l49.04.54c1.83,8.18,2.93,21.97,6.21,29.29.77,1.73,1.59,2.34,2.79.71l65,4.99c-17.91-60.22-34.18-121.05-53-180.99-.75-2.4-.04-6.55-3.48-7.02l-84.38-1.84c-9.65,33.41-18.94,67.02-27.86,100.64-6.03,22.75-16.01,52.12-19.65,74.44-.17,1.05-.74,5.08-.63,5.78ZM238,286.37c-.22-2.89,1.32-7.51-2.53-8.05l-71.81,5.97c-10.44,24.28-21.64,48.5-28.66,74.09-.07-.18-1.81-1.39-2.56-2.92-9.16-18.7-18.25-37.42-27.44-56.08-.64-1.3-2.51-7.43-3.16-7.83l-3.31-.22-72.4,12.19-.14,186.36c.88,1.75,2.59-.41,3.01-.5,18.59-3.86,37.37-7.11,55.95-11.04,1.06-14.82,1.17-29.61,1.09-44.5-.09-17.77-.77-36.03-2.05-53.95.36-1.17,2.84,2.12,2.98,2.29.58.73.66,1.64,1.03,2.2-1.57.46.42,3.9.83,4.68,11.8,22.19,24.55,47.44,38.17,68.32.8,1.23,2.87,7.53,4.99,6l47.01-93v1c-1.97,31.1-1.84,62.31-3.01,93.45.23,1.82,4.4-.42,5.01-.45,13.25-.62,26.31-2.09,39.51-2.99,3.51-.24,16.4,1.24,17.35-1.65l.14-173.36ZM443,425.37c-1,8.76,11.08,25.06,17.47,31.03,28.1,26.2,98.28,37.39,130.44,15.38,18.46-12.63,23.06-30.48,24.13-51.87,1.85-36.94-1.47-75.45-.04-112.54.13-3.07-2.53-3.03-4.8-3.7-18.92-5.57-42.65-6.13-62.2-10.3.21,33.5-.27,67.04-.04,100.54.06,9.45,1.85,17.5-.38,27.53-2.9,13.02-24.53,9.45-33.58,4.93-5.62-5.99-6.41-8.89-7.04-17.46-2.42-33.06-1.51-80.05.04-113.54.08-1.82,3-4.93-1.7-6.8l-65.3-6.2v132.5c0,.85.95,6.28,1.2,7.83.18,1.12.84,2.08,1.8,2.67Z"/>
    <path class="cls-6" d="M434.7,594.84c-1.39-1.23,5.83-6.21,6.98-7.52,4.35-4.94,7.13-11.79,7.01-18.47-5.65,2.45-7.43,7.67-14.18,9.31-30.74,7.48-34.21-41.32-1.82-38.32-13.28-41.98,54.68-41.47,41.01,0,44.53,2.47,16.15,62.53-14.99,29.01-.85,9,3.98,16.37,10.48,22.01,1.94,1.68,5.1,1.22,4.51,3.99h-39Z"/>
    <path class="cls-3" d="M230.42,512.07c7.3-1.49,14.61.59,20.22,5.33,1.68,1.42,3.67,5.91,5.55,5.44,13.08-20.89,43.9-10.56,41.4,14.39-1.25,12.53-10.81,22.32-19.36,30.63l-22.17,19.86c-1.13.2-4.27-2.48-5.36-3.37-9.93-8.13-31.06-28.27-35.03-39.97-4.3-12.68.12-29.32,14.76-32.31Z"/>
    <path class="cls-6" d="M143.7,594.84c-1.59-1.27,5.05-4.61,6.01-5.49,5.73-5.27,9.12-11.46,8.98-19.51-7.9,8.14-18.8,13.05-29.02,5.53-27.34-20.14,19.72-50.72,31.5-65.59l1.89-.87c10.65,11.74,39.31,31.74,41.37,47.69,2.22,17.16-16.21,28.83-30.67,18.68-1.22-.86-5.93-6.67-7.06-5.43.39,11.77,5.36,16.21,13.73,22.7.83.65,1.82-.03,1.26,2.29h-38Z"/>
    <path class="cls-3" d="M320.28,559.26c-2.25-2.5-9.56-8.27-8.11-11.4l41.17-43.95,42.29,45.57-41.57,45.29c-1.32.23-5.28-4.23-6.39-5.4-9.24-9.79-18.38-20.1-27.39-30.11Z"/>
    <path class="cls-6" d="M600.99,557.38c-.16,1.6-4.3,1.88-5.5,1.98-9.73.79-20.24.59-30,1-16.5.7-33.03.85-49.49,2.02,1.05-9.65-3.52-17.57-6.99-26,31.38,2.98,62.02,11.68,91.99,21.01Z"/>
    <path class="cls-6" d="M111.99,537.38l-6.42,7.06c-4.11,6.1-3.64,11.19-1.57,17.93l-71.99-3c-.41-2.26.1-1.6,1.27-2.23,5.33-2.89,18.06-5.7,24.51-7.48,17.85-4.91,36.03-8.81,54.21-12.28Z"/>
    <path class="cls-3" d="M238,286.37l-.14,173.36c-.95,2.89-13.84,1.41-17.35,1.65-13.2.9-26.26,2.37-39.51,2.99-.19-3.15.28-6.39.04-9.54-.1-1.29-1.04-2.62-1.04-2.96v-69c0-2.92,1.18-7.3,1-11.5-.09-2.1-.54-3.49-2-1l-47.01,93c-2.11,1.53-4.18-4.76-4.99-6-1.28-5.17-4.02-10.32-6.48-15.02-9.59-18.35-21.25-41.15-32.52-57.98-.37-.56-.45-1.47-1.03-2.2-.14-.17-2.62-3.46-2.98-2.29,1.28,17.92,1.97,36.18,2.05,53.95.07,14.89-.03,29.67-1.09,44.5-18.58,3.93-37.36,7.19-55.95,11.04,10.11-58.9,4.45-119.28,6.14-178.86l69.86-11.14c9.2,18.66,18.29,37.39,27.44,56.08.75,1.53,2.49,2.73,2.56,2.92.56,1.52-.94,7.3,2.84,2.34l34.76-69.24,14.91-2.09,50.49-3.01Z"/>
    <path class="cls-3" d="M507,295.37c-1.55,33.49-2.46,80.48-.04,113.54.63,8.57,1.42,11.47,7.04,17.46,3.64,3.88,5.86,6.49,11.45,8.05,12.42,3.47,23.12-.39,26.87-13.23,4.84-16.58,2.33-45.37,2.64-63.36.21-11.92.61-23.97,1.08-35.92.26-6.49-.27-13.06-.05-19.55l59,5c-1.43,37.1,1.89,75.6.04,112.54-1.07,21.38-5.68,39.24-24.13,51.87-32.15,22.01-102.34,10.82-130.44-15.38-6.4-5.97-18.47-22.26-17.47-31.03.25-2.23,1.74-3.91,2.04-6.47,1.72-14.92,2.53-30.98,3.01-45.99.87-27.45-.73-55.09-.04-82.55l59,5Z"/>
    <path class="cls-3" d="M385,285.37c18.81,59.94,35.08,120.77,53,180.99l-65-4.99c-1.39-4.48-4.8-27.8-7-29.54l-2-.46-49.04-.54c-2.7,4-5.35,27.31-8.6,28.4l-55.74,1.22c-.58-.09-1.54-2.54-1.62-3.08l57.04-172.96,78.96.96ZM324,389.37c-.36,1.18-4.67,4.07.5,5,9.7,1.75,24.24-1.29,34.5,0-2.8-14.48-6.58-28.81-10.48-43.02-.62-2.27-2.08-4.05-2.72-6.37-1.59-5.81.42-7.86-3.81-14.61-.97-1.55-.31-3.68-2.99-3-5.49,20.24-8.91,42-15.01,62Z"/>
    <path class="cls-4" d="M234,50.37c19.19,14.14,37.35,29.65,56.51,43.83l39.18-45.67c1.66-.43,3.58-.55,4.8.85l27.98,45.03,58.53-41.04-17.18,83.31c-1.3,3.49-7.92.93-10.81.69l13-63.99-48.44,29.05-25.04-42.05-39,48.05-63-55.07,22.49,82.01c27.35-4.44,71.5-7.75,97,0-15.73,1.56-31.65,1.25-47.38,3.12-17.35,2.07-35.59,6.14-52.62,9.88-5.07,1.11-10.02,1.88-15,3.5-1.39.45-4.77.86-5,2.49,7.01-1.03,13.37-2.43,20.53-3,1.91-.15,4.02,1.13,3.47-1.99,12.48-.44,25.05-4.21,37.51-4.99,35.74-2.25,72.53,1.95,107.78,7.2,3.3,1.22.41,4.94.65,7.73-13.85-.54-27.62-3.09-41.45-3.93-75.84-4.61-159.17,8.28-229.49,36.99,38.88-21.83,79.89-40.15,122.34-54.17l1.66-2.83c-6.71,1.09-11.96,2.81-18.06,4.44-41.96,11.19-82.34,27.91-119.45,50.32l-36.48-46.27,56.99,10.5,2.01-48.99,59.9,25.9,28.9-76.6c1.18-3.9,4.6-2.51,7.19-4.31Z"/>
    <path class="cls-1" d="M253,135.37l-22.49-82.01,63,55.07,39-48.05,25.04,42.05,48.44-29.05-13,63.99c-10.07-.85-35.73.21-43-2-25.5-7.75-69.65-4.44-97,0Z"/>
    <path class="cls-2" d="M234,50.37c-2.59,1.8-6.01.4-7.19,4.31l-28.9,76.6-59.9-25.9-2.01,48.99-56.99-10.5,36.48,46.27c37.12-22.41,77.49-39.13,119.45-50.32,6.1-1.63,11.35-3.35,18.06-4.44l-1.66,2.83c-42.45,14.03-83.46,32.34-122.34,54.17-5.32,2.17-15.69,8.57-19.98,9.6-.72.17-1.31.66-2.02-.04l-53-72.56,72,12c1.53-5.43,3.05-50.51,5.58-50.95,4.23-.73,50.6,25.48,58.82,27.86l35.65-72.88c2-1.37,6.19,3.66,7.95,4.96Z"/>
    <path class="cls-2" d="M486.73,195.65l21.78,37.72,2.64-34.85,18.75,1.95-5.01,63.78c-.92.57-17.79-1.58-19.37-2.89-7.2-12.29-15.59-24-21.53-36.98l-1.98,9.5c-.27,3.61-.44,23.09-1.45,24.55-1.34,1.93-15.33-.71-18.45-1.16l3.89-63.9,20.73,2.28Z"/>
    <path class="cls-2" d="M201.64,205.73c6.78,6.78,9.06,18.84,8.34,28.13-2.36,30.19-36.56,28.11-58.98,30.52l-5.98-63.98c17.64-1.23,42.49-8.81,56.62,5.33ZM170.08,248.29c16.04.67,23.15-12.88,17.71-27.21-3.29-8.66-14.26-11.27-21.67-7.13l3.96,34.34Z"/>
    <path class="cls-2" d="M282.76,188.63c28.84-3.69,47.92,16.69,38.97,44.97-5.72,18.07-23.92,22.72-41.11,20.67-34.22-4.08-36.78-60.65,2.15-65.63ZM284.71,203.59c-14.51,3.35-14.04,40.75,8.58,35.57,13.94-3.19,14.17-40.82-8.58-35.57Z"/>
    <path class="cls-2" d="M451,192.37v14l-31.99-2c.38,1.92-.61,9.04.1,9.89,1.26,1.49,23.36,1.43,27.25,2.24,3.89,1.27-.2,10.63.64,13.87l-29.01-1.01v11.01s32.01,1.99,32.01,1.99v14l-51.36-2.14-1.64-2.36c.3-20.81,1.67-41.68,3.05-62.45l50.95,2.95Z"/>
    <path class="cls-2" d="M29,489.37c-.42.09-2.13,2.25-3.01.5l.14-186.36,72.4-12.19,3.31.22c.64.4,2.51,6.53,3.16,7.83l-69.86,11.14c-1.69,59.58,3.97,119.96-6.14,178.86Z"/>
    <path class="cls-2" d="M385,285.37l-78.96-.96-57.04,172.96c-.11-.7.46-4.73.63-5.78,3.65-22.32,13.62-51.69,19.65-74.44,8.91-33.63,18.21-67.23,27.86-100.64l84.38,1.84c3.45.47,2.73,4.62,3.48,7.02Z"/>
    <polygon class="cls-2" points="388 189.37 388 204.37 369 204.37 368 253.38 348 252.37 348 204.37 329 204.37 329 188.37 388 189.37"/>
    <path class="cls-2" d="M507,295.37l-59-5c-.69,27.46.92,55.09.04,82.55-.48,15.01-1.29,31.07-3.01,45.99-.29,2.56-1.78,4.24-2.04,6.47-.96-.59-1.62-1.54-1.8-2.67-.25-1.56-1.2-6.98-1.2-7.83v-132.5l65.3,6.2c4.7,1.87,1.78,4.98,1.7,6.8Z"/>
    <path class="cls-2" d="M615,307.37l-59-5c-.22,6.48.3,13.06.05,19.55-.47,11.95-.87,24-1.08,35.92-.31,17.98,2.2,46.78-2.64,63.36-3.75,12.85-14.45,16.7-26.87,13.23-5.59-1.56-7.81-4.17-11.45-8.05,9.05,4.53,30.68,8.09,33.58-4.93,2.23-10.03.45-18.08.38-27.53-.22-33.51.25-67.05.04-100.54,19.55,4.17,43.28,4.73,62.2,10.3,2.27.67,4.93.63,4.8,3.7Z"/>
    <path class="cls-2" d="M240,192.37l4.01,64.01-20.01,1-4.04-61.52c-.46-1.82,4.48-3.49,5.54-3.49h14.5Z"/>
    <path class="cls-2" d="M129.99,205.37l6.05,60.34c-.48,2.07-17.13,2.85-20.04,2.67l-5.03-54.34c2.66-1.3,17.68-9.84,19.03-8.67Z"/>
    <path class="cls-2" d="M238,286.37l-50.49,3.01-14.91,2.09-34.76,69.24c-3.78,4.96-2.28-.82-2.84-2.34,7.01-25.59,18.21-49.81,28.66-74.09l71.81-5.97c3.84.55,2.31,5.16,2.53,8.05Z"/>
    <path class="cls-2" d="M217.71,12.59c18.52-4.26,21.87,21.92,4.75,22.82-15.49.82-16.27-20.17-4.75-22.82Z"/>
    <path class="cls-2" d="M181,371.37c.18,4.2-1,8.58-1,11.5v69c0,.34.94,1.67,1.04,2.96.24,3.15-.22,6.39-.04,9.54-.62.03-4.78,2.27-5.01.45,1.17-31.14,1.05-62.35,3.01-93.45h2Z"/>
    <path class="cls-2" d="M330.7,22.58c11.44-3.42,16.94,12.01,6.34,15.36-11.4,3.6-14.74-12.85-6.34-15.36Z"/>
    <path class="cls-2" d="M120.73,65.57c8.13-1.07,13.86,10.87,4.64,15.67-11.22,5.84-16.75-14.07-4.64-15.67Z"/>
    <path class="cls-2" d="M127,457.37c-13.62-20.88-26.37-46.14-38.17-68.32-.41-.77-2.4-4.22-.83-4.68,11.27,16.82,22.93,39.63,32.52,57.98,2.46,4.7,5.2,9.86,6.48,15.02Z"/>
    <path class="cls-2" d="M373,461.37c-1.2,1.62-2.01,1.01-2.79-.71-3.28-7.31-4.38-21.1-6.21-29.29l2,.46c2.19,1.74,5.61,25.05,7,29.54Z"/>
    <path class="cls-1" d="M250,148.37c.67,1.44,2.7,1.05,4,1,.55,3.12-1.56,1.83-3.47,1.99-7.16.57-13.51,1.97-20.53,3,.22-1.63,3.61-2.04,5-2.49,4.98-1.62,9.93-2.39,15-3.5Z"/>
    <path class="cls-4" d="M179,370.37c1.46-2.49,1.91-1.1,2,1h-2v-1Z"/>
    <path class="cls-6" d="M324,389.37c6.1-20,9.53-41.76,15.01-62,2.68-.68,2.01,1.44,2.99,3l10,59h-28Z"/>
    <path class="cls-2" d="M342,330.37c4.22,6.75,2.21,8.79,3.81,14.61.64,2.32,2.1,4.09,2.72,6.37,3.9,14.21,7.68,28.55,10.48,43.02-10.26-1.29-24.8,1.75-34.5,0-5.17-.93-.86-3.82-.5-5h28s-10-59-10-59Z"/>
    <path class="cls-6" d="M170.08,248.29l-3.96-34.34c7.41-4.14,18.39-1.53,21.67,7.13,5.44,14.33-1.67,27.88-17.71,27.21Z"/>
    <path class="cls-6" d="M284.71,203.59c22.75-5.25,22.53,32.38,8.58,35.57-22.62,5.17-23.1-32.22-8.58-35.57Z"/>
  </g>
</svg>